# xmcd CD Database Entry
#
# Track frame offsets:
# 150
# 19710
# 40890
# 59035
# 82155
# 105397
# 124510
# 147005
# 164175
# 186137
# 202210
# 221102
# 237970
# 254392
# 274492
# 292810
#
# Disc length: 4115 seconds
#
# Revision: 1
# Processed by: cddbd v1.4b41PL1 Copyright (c) Steve Scherf et al.
# Submitted via: tcd 2.0b
#
DISCID=fb101110
DTITLE=moonight 2000
DYEAR=1900
DGENRE=
TTITLE0=smoke machine
TTITLE1=Blue
TTITLE2=all i want
TTITLE3=Can i get a...
TTITLE4=Don't stop
TTITLE5=shake
TTITLE6=Smomething hard
TTITLE7=Body rock
TTITLE8=whwre my girl at?
TTITLE9=gouryella
TTITLE10=sound system
TTITLE11=Sun is shining
TTITLE12=Freak me
TTITLE13=Think about
TTITLE14=Fight me again
TTITLE15=we like the party
EXTD=\t\t\t\t\t\t
EXTT0=
EXTT1=
EXTT2=
EXTT3=
EXTT4=
EXTT5=
EXTT6=
EXTT7=
EXTT8=
EXTT9=
EXTT10=
EXTT11=
EXTT12=
EXTT13=
EXTT14=
EXTT15=
PLAYORDER=
